# xmcd
#
# Track frame offsets:
#	150
#	16526
#	35305
#	51815
#	70080
#	84312
#	100891
#	117337
#	134068
#	156078
#	173290
#	196183
#	213974
#	232266
#	253815
#	271944
#	289118
#	306551
#	323517
#
# Disc length: 4499 seconds
#
# Revision: 1
# Processed by: cddbd v1.5.1PL2 Copyright (c) Steve Scherf et al.
# Submitted via: audiograbber 1.83.01
#
DISCID=03119113
DTITLE=Top Tunes - ttfp21
DYEAR=1900
DGENRE=Karaoke Country
TTITLE0=Cochran, Tammy - Angels In Waiting
TTITLE1=Womack, Lee Ann - Ashes By Now
TTITLE2=Evans, Sara - Born To Fly
TTITLE3=Messina, Jo Dee - Burn
TTITLE4=Rimes, Leann - But I Do Love You
TTITLE5=Rimes, Leann - Can't Fight The Moonlight
TTITLE6=McCann, Lila - Come A Little Closer
TTITLE7=Johnson, Carolyn Dawn - Complicated
TTITLE8=Dixie Chicks - Cowboy Take Me Away
TTITLE9=Messina, Jo Dee - Downtime
TTITLE10=Twain, Shania - From This Moment On
TTITLE11=Dixie Chicks - Heart Break Town
TTITLE12=Andrews, Jessica - Helplessly Hopelessly
TTITLE13=Evans, Sara - I Could Not Ask For More
TTITLE14=Womack, Lee Ann - I Hope You Dance
TTITLE15=Rimes, Leann - I Need You
TTITLE16=Yearwood, Trisha - I Would Have Loved You Anyway
TTITLE17=Hill, Faith - If My Heart Had Wings
TTITLE18=Womack, Lee Ann - I'll Think Of A Reason Later
EXTD=
EXTT0=
EXTT1=
EXTT2=
EXTT3=
EXTT4=
EXTT5=
EXTT6=
EXTT7=
EXTT8=
EXTT9=
EXTT10=
EXTT11=
EXTT12=
EXTT13=
EXTT14=
EXTT15=
EXTT16=
EXTT17=
EXTT18=
PLAYORDER=
